<?xml version="1.0" encoding="UTF-8"?>
<svg id="Layer_2" data-name="Layer 2" xmlns="http://www.w3.org/2000/svg" viewBox="0 0 733 307.18">
  <defs>
    <style>
      .cls-1 {
        fill: #231f20;
        stroke-width: 0px;
      }
    </style>
  </defs>
  <g id="Layer_1-2" data-name="Layer 1">
    <g>
      <path class="cls-1" d="M170.87,172.16c.45-4.49.72-9.42,1.02-14.76.3-5.34.61-10.82.95-16.42l4.92-53.99c.17-2.88.4-6.43.7-10.63.3-4.2.68-8.44,1.15-12.73.47-4.28,1.02-8.35,1.65-12.22.64-3.86,1.17-7.1,1.59-9.74.42-2.63,1-5.11,1.72-7.44.72-2.33,1.57-4.92,2.55-7.76.97-2.84,2.18-6.21,3.63-10.12,1.18-3.18,2.64-6.9,4.38-11.16.67-1.64,2.54-2.44,4.19-1.79h0c1.44.57,2.27,2.08,1.99,3.61-1.37,7.57-2.48,17.99-3.31,31.23-.93,14.85-3.68,37.15-4.45,61.84l-.98,22.31c-.51,13.57-2.1,27.15-4.77,40.72-2.67,13.57-5.75,25.88-9.23,36.9-4.58,14.51-10.22,28.25-16.92,41.23-6.7,12.98-14.63,24.35-23.8,34.1-9.16,9.75-19.6,17.5-31.3,23.22s-24.81,8.59-39.32,8.59c-10.86,0-20.36-1.74-28.51-5.22-8.14-3.48-14.97-8.25-20.49-14.32-5.52-6.07-11.11-12.15-13.91-20.29-2.8-8.14-4.32-18.24-4.32-27.41,0-18.32,1.88-35.34,7.73-51.5,5.34-14.76,9.48-30.84,16.92-46.87.89-1.92,3.13-2.82,5.11-2.07h0c2.12.8,3.16,3.19,2.32,5.29-4.54,11.4-7.82,21.5-9.84,30.28-2.25,9.76-3.37,18.67-3.37,26.72,0,19.77,5.39,34.49,16.16,44.16,10.77,9.67,25.71,14.51,44.79,14.51,14.84,0,27.61-2.44,38.3-7.32,10.69-4.88,19.58-10.9,26.66-18.07,0,0,21.92-21.6,26.09-62.93Z"/>
      <path class="cls-1" d="M219.26,209.74c-1.66-.41-2.73-2.02-2.44-3.71,1.47-8.54,2.8-23.97,4.01-46.28l2.55-64.77c.59-13.32,1.4-23.14,2.42-29.46,1.02-6.32,2.97-13.72,5.85-22.21,2.7-7.93,6.8-18.09,12.32-30.47.65-1.47,2.34-2.18,3.85-1.62h.02c1.49.56,2.32,2.16,1.87,3.68-2.43,8.24-4.24,24.54-5.45,48.9l-4.2,74.7c-1.15,21.8-6.81,44.91-16.98,69.33-.62,1.48-2.23,2.29-3.79,1.91h0Z"/>
      <path class="cls-1" d="M309.63,200.04c20.95-.24,297.55-5.25,314.48-13.88,17.05-8.69,30.84-21.91,41.36-39.64,10.52-17.73,15.86-33.6,16.03-47.59-.17-12.05-5.98-18.15-17.43-18.32-10.52,0-20.74,3.9-30.67,11.71-7.21,5.6-14.93,13.45-23.16,23.54,5.51-17.9,8.78-34.91,9.8-51.03,1.83-31.56,3.83-51.91,6-61.08.36-1.54-.5-3.09-2-3.59h0c-1.48-.49-3.1.21-3.74,1.63-7.26,16.18-12.14,30.31-14.64,42.42-1.53,5.77-2.67,17.35-3.44,34.74-.93,26.72-2.63,44.67-5.09,53.83l-17.56,25.71c-5.61.75-187.69.05-197.56.33-6.57-.05-71.93-1.08-76.07-3.11-4.24-2.08-7.59-5.36-10.05-9.86-2.46-4.5-4.16-10.18-5.09-17.05-.93-6.87-1.4-15.1-1.4-24.69,0-23.67.61-43.56,1.85-59.68,1.1-14.47,2.4-25.59,3.88-33.36.28-1.46-.53-2.91-1.93-3.43l-.28-.1c-1.54-.57-3.26.19-3.88,1.71-1.78,4.35-3.25,8.12-4.41,11.33-1.4,3.86-2.55,7.21-3.44,10.05-.89,2.84-1.61,5.45-2.16,7.83-.55,2.38-1.04,4.84-1.46,7.38-.59,3.05-1.17,6.58-1.72,10.56-.55,3.99-1.06,8.08-1.53,12.28-.47,4.2-.81,8.29-1.02,12.28-.21,3.99-.4,7.42-.57,10.31l-3.44,72.54c-.34,5.52-.66,10.12-.95,13.81-.3,3.69-.89,6.98-1.78,9.86-.89,2.89-2.27,5.58-4.14,8.08-1.87,2.5-4.45,5.24-7.76,8.21-6.28,5.6-13.72,9.78-22.33,12.53-7.83,2.51-15.53,4.19-23.12,5.05-1.36.15-2.49,1.12-2.83,2.45l-.24.95c-.31,1.25.13,2.55,1.14,3.35,1.17.93,2.6,1.9,4.3,2.9,2.59,1.53,5.33,2.93,8.21,4.2,2.88,1.27,5.79,2.42,8.72,3.44,2.93,1.02,5.54,1.61,7.83,1.78,2.55-.68,5.13-1.78,7.76-3.31,2.63-1.53,5.09-3.24,7.38-5.15,2.29-1.91,4.41-3.97,6.36-6.17,1.95-2.21,3.65-4.2,5.09-5.98,3.48-4.92,6.55-10.35,9.23-16.29,2.66-5.91,4.97-12.46,6.91-19.64,0-.03.05-.03.06,0,1.52,3.19,3.46,5.84,5.82,7.94,2.37,2.12,4.94,3.8,7.7,5.03,2.76,1.23,5.58,2.08,8.46,2.55,2.72.44,6.58.78,9.28.68M640.1,142.95c-11.81,5.15-24.42,8.34-37.82,9.58l5.6-7.98c12.43-17.13,24.87-25.7,37.3-25.7,3.59,0,6.63.78,9.12,2.33s3.73,3.37,3.73,5.44c-.14,5.73-6.11,11.17-17.93,16.32Z"/>
      <path class="cls-1" d="M702.45,201.89c-1.66-.41-2.73-2.02-2.44-3.7,1.47-8.54,2.8-23.97,4.01-46.28l2.55-64.77c.59-13.32,1.38-23.14,2.35-29.46.97-6.32,2.93-13.72,5.85-22.21,2.74-7.93,6.86-18.08,12.38-30.46.66-1.48,2.35-2.19,3.86-1.63h0c1.5.56,2.32,2.17,1.87,3.71-2.42,8.32-4.24,24.99-5.45,50.01l-4.2,73.55c-1.15,21.64-6.81,44.75-16.99,69.32-.61,1.48-2.23,2.3-3.79,1.91h0Z"/>
    </g>
  </g>
</svg>